<mxfile host="65bd71144e" modified="2021-02-20T08:44:22.981Z" agent="5.0 (Macintosh; Intel Mac OS X 10_15_6) AppleWebKit/537.36 (KHTML, like Gecko) Code/1.52.1 Chrome/83.0.4103.122 Electron/9.3.5 Safari/537.36" etag="UdbG9tEepjRtoh7TJNdx" version="13.10.0" type="embed">
    <diagram id="I1sEE97VDQTC6iK8TLRU" name="第 1 页">
        <mxGraphModel dx="2350" dy="-719" grid="1" gridSize="10" guides="1" tooltips="1" connect="1" arrows="1" fold="1" page="1" pageScale="1" pageWidth="850" pageHeight="1100" background="#F1FAEE" math="0" shadow="0">
            <root>
                <mxCell id="0"/>
                <mxCell id="1" parent="0"/>
                <mxCell id="44" value="" style="edgeStyle=orthogonalEdgeStyle;rounded=1;orthogonalLoop=1;jettySize=auto;html=1;strokeColor=#457B9D;fillColor=#A8DADC;fontColor=#1D3557;labelBackgroundColor=#F1FAEE;" parent="1" edge="1">
                    <mxGeometry relative="1" as="geometry">
                        <mxPoint x="-605" y="385" as="sourcePoint"/>
                    </mxGeometry>
                </mxCell>
                <mxCell id="48" value="成立" style="edgeLabel;html=1;align=center;verticalAlign=middle;resizable=0;points=[];fontColor=#1D3557;labelBackgroundColor=#F1FAEE;" parent="44" vertex="1" connectable="0">
                    <mxGeometry x="-0.5724" y="-1" relative="1" as="geometry">
                        <mxPoint as="offset"/>
                    </mxGeometry>
                </mxCell>
                <mxCell id="56" value="" style="edgeStyle=orthogonalEdgeStyle;curved=0;rounded=1;sketch=0;orthogonalLoop=1;jettySize=auto;html=1;strokeColor=#457B9D;fillColor=#A8DADC;fontColor=#1D3557;labelBackgroundColor=#F1FAEE;" parent="1" source="57" target="67" edge="1">
                    <mxGeometry relative="1" as="geometry"/>
                </mxCell>
                <mxCell id="57" value="&lt;div style=&quot;line-height: 18px&quot;&gt;createGetter&lt;/div&gt;" style="rounded=0;whiteSpace=wrap;html=1;sketch=0;strokeColor=#457B9D;fillColor=#A8DADC;fontColor=#1D3557;" parent="1" vertex="1">
                    <mxGeometry x="-1160" y="1270" width="120" height="30" as="geometry"/>
                </mxCell>
                <mxCell id="100" value="" style="edgeStyle=orthogonalEdgeStyle;rounded=0;orthogonalLoop=1;jettySize=auto;html=1;strokeColor=#457B9D;fontColor=#1D3557;labelBackgroundColor=#F1FAEE;" parent="1" source="58" target="94" edge="1">
                    <mxGeometry relative="1" as="geometry"/>
                </mxCell>
                <mxCell id="58" value="&lt;div style=&quot;line-height: 18px&quot;&gt;createSetter&lt;/div&gt;" style="rounded=0;whiteSpace=wrap;html=1;sketch=0;strokeColor=#457B9D;fillColor=#A8DADC;fontColor=#1D3557;" parent="1" vertex="1">
                    <mxGeometry x="-1160" y="1975" width="120" height="30" as="geometry"/>
                </mxCell>
                <mxCell id="145" style="edgeStyle=orthogonalEdgeStyle;curved=0;rounded=1;sketch=0;orthogonalLoop=1;jettySize=auto;html=1;entryX=0;entryY=0.5;entryDx=0;entryDy=0;strokeColor=#457B9D;fillColor=#A8DADC;fontColor=#1D3557;labelBackgroundColor=#F1FAEE;" parent="1" source="59" target="68" edge="1">
                    <mxGeometry relative="1" as="geometry">
                        <Array as="points">
                            <mxPoint x="-390" y="1195"/>
                            <mxPoint x="-390" y="1308"/>
                            <mxPoint x="-230" y="1308"/>
                        </Array>
                    </mxGeometry>
                </mxCell>
                <mxCell id="59" value="readonlyHandlers" style="rounded=0;whiteSpace=wrap;html=1;sketch=0;strokeColor=#457B9D;fillColor=#A8DADC;fontColor=#1D3557;" parent="1" vertex="1">
                    <mxGeometry x="-1160" y="1180" width="120" height="30" as="geometry"/>
                </mxCell>
                <mxCell id="146" style="edgeStyle=orthogonalEdgeStyle;curved=0;rounded=1;sketch=0;orthogonalLoop=1;jettySize=auto;html=1;entryX=0;entryY=0.5;entryDx=0;entryDy=0;strokeColor=#457B9D;fillColor=#A8DADC;fontColor=#1D3557;labelBackgroundColor=#F1FAEE;" parent="1" source="60" target="78" edge="1">
                    <mxGeometry relative="1" as="geometry">
                        <Array as="points">
                            <mxPoint x="-330" y="1785"/>
                            <mxPoint x="-330" y="1553"/>
                        </Array>
                    </mxGeometry>
                </mxCell>
                <mxCell id="147" value="&lt;span style=&quot;&quot;&gt;只触发最外层的依赖收集&lt;/span&gt;" style="edgeLabel;html=1;align=center;verticalAlign=middle;resizable=0;points=[];fontColor=#1D3557;labelBackgroundColor=none;" parent="146" vertex="1" connectable="0">
                    <mxGeometry x="-0.073" y="1" relative="1" as="geometry">
                        <mxPoint as="offset"/>
                    </mxGeometry>
                </mxCell>
                <mxCell id="60" value="&lt;div style=&quot;line-height: 18px&quot;&gt;shallowReactiveHandlers&lt;/div&gt;" style="rounded=0;whiteSpace=wrap;html=1;sketch=0;strokeColor=#457B9D;fillColor=#A8DADC;fontColor=#1D3557;" parent="1" vertex="1">
                    <mxGeometry x="-1170" y="1770" width="180" height="30" as="geometry"/>
                </mxCell>
                <mxCell id="61" style="edgeStyle=orthogonalEdgeStyle;curved=0;rounded=1;sketch=0;orthogonalLoop=1;jettySize=auto;html=1;entryX=0;entryY=0.5;entryDx=0;entryDy=0;strokeColor=#457B9D;fillColor=#A8DADC;fontColor=#1D3557;labelBackgroundColor=#F1FAEE;" parent="1" source="67" target="70" edge="1">
                    <mxGeometry relative="1" as="geometry"/>
                </mxCell>
                <mxCell id="62" style="edgeStyle=orthogonalEdgeStyle;curved=0;rounded=1;sketch=0;orthogonalLoop=1;jettySize=auto;html=1;entryX=0;entryY=0.5;entryDx=0;entryDy=0;strokeColor=#457B9D;fillColor=#A8DADC;fontColor=#1D3557;labelBackgroundColor=#F1FAEE;" parent="1" source="67" target="72" edge="1">
                    <mxGeometry relative="1" as="geometry"/>
                </mxCell>
                <mxCell id="63" style="edgeStyle=orthogonalEdgeStyle;curved=0;rounded=1;sketch=0;orthogonalLoop=1;jettySize=auto;html=1;entryX=0;entryY=0.5;entryDx=0;entryDy=0;strokeColor=#457B9D;fillColor=#A8DADC;fontColor=#1D3557;labelBackgroundColor=#F1FAEE;" parent="1" source="67" target="74" edge="1">
                    <mxGeometry relative="1" as="geometry"/>
                </mxCell>
                <mxCell id="64" style="edgeStyle=orthogonalEdgeStyle;curved=0;rounded=1;sketch=0;orthogonalLoop=1;jettySize=auto;html=1;entryX=0;entryY=0.5;entryDx=0;entryDy=0;strokeColor=#457B9D;fillColor=#A8DADC;fontColor=#1D3557;labelBackgroundColor=#F1FAEE;" parent="1" source="67" target="79" edge="1">
                    <mxGeometry relative="1" as="geometry"/>
                </mxCell>
                <mxCell id="65" style="edgeStyle=orthogonalEdgeStyle;curved=0;rounded=1;sketch=0;orthogonalLoop=1;jettySize=auto;html=1;entryX=0;entryY=0.5;entryDx=0;entryDy=0;strokeColor=#457B9D;fillColor=#A8DADC;fontColor=#1D3557;labelBackgroundColor=#F1FAEE;" parent="1" source="67" target="77" edge="1">
                    <mxGeometry relative="1" as="geometry"/>
                </mxCell>
                <mxCell id="66" style="edgeStyle=orthogonalEdgeStyle;curved=0;rounded=1;sketch=0;orthogonalLoop=1;jettySize=auto;html=1;entryX=0;entryY=0.5;entryDx=0;entryDy=0;strokeColor=#457B9D;fillColor=#A8DADC;fontColor=#1D3557;labelBackgroundColor=#F1FAEE;" parent="1" source="67" target="82" edge="1">
                    <mxGeometry relative="1" as="geometry"/>
                </mxCell>
                <mxCell id="67" value="&lt;div style=&quot;line-height: 18px&quot;&gt;判断取key和target逻辑&lt;/div&gt;" style="rounded=0;whiteSpace=wrap;html=1;sketch=0;strokeColor=#457B9D;fillColor=#A8DADC;fontColor=#1D3557;" parent="1" vertex="1">
                    <mxGeometry x="-1000" y="1270" width="160" height="30" as="geometry"/>
                </mxCell>
                <mxCell id="68" value="不触发依赖收集" style="rounded=0;whiteSpace=wrap;html=1;sketch=0;strokeColor=#457B9D;fillColor=#A8DADC;fontColor=#1D3557;" parent="1" vertex="1">
                    <mxGeometry x="-230" y="1295" width="120" height="25" as="geometry"/>
                </mxCell>
                <mxCell id="69" style="edgeStyle=orthogonalEdgeStyle;curved=0;rounded=1;sketch=0;orthogonalLoop=1;jettySize=auto;html=1;exitX=1;exitY=0.5;exitDx=0;exitDy=0;entryX=0;entryY=0.5;entryDx=0;entryDy=0;strokeColor=#457B9D;fillColor=#A8DADC;fontColor=#1D3557;labelBackgroundColor=#F1FAEE;" parent="1" source="70" target="68" edge="1">
                    <mxGeometry relative="1" as="geometry"/>
                </mxCell>
                <mxCell id="70" value="ReactiveFlags.IS_REACTIVE" style="rounded=0;whiteSpace=wrap;html=1;sketch=0;strokeColor=#457B9D;fillColor=#A8DADC;fontColor=#1D3557;labelBackgroundColor=none;" parent="1" vertex="1">
                    <mxGeometry x="-750" y="1220" width="200" height="35" as="geometry"/>
                </mxCell>
                <mxCell id="71" style="edgeStyle=orthogonalEdgeStyle;curved=0;rounded=1;sketch=0;orthogonalLoop=1;jettySize=auto;html=1;entryX=0;entryY=0.5;entryDx=0;entryDy=0;strokeColor=#457B9D;fillColor=#A8DADC;fontColor=#1D3557;labelBackgroundColor=#F1FAEE;" parent="1" source="72" target="68" edge="1">
                    <mxGeometry relative="1" as="geometry"/>
                </mxCell>
                <mxCell id="72" value="ReactiveFlags.IS_READONLY" style="rounded=0;whiteSpace=wrap;html=1;sketch=0;strokeColor=#457B9D;fillColor=#A8DADC;fontColor=#1D3557;labelBackgroundColor=none;" parent="1" vertex="1">
                    <mxGeometry x="-750" y="1285" width="200" height="35" as="geometry"/>
                </mxCell>
                <mxCell id="73" style="edgeStyle=orthogonalEdgeStyle;curved=0;rounded=1;sketch=0;orthogonalLoop=1;jettySize=auto;html=1;entryX=0;entryY=0.5;entryDx=0;entryDy=0;strokeColor=#457B9D;fillColor=#A8DADC;fontColor=#1D3557;labelBackgroundColor=#F1FAEE;" parent="1" source="74" target="68" edge="1">
                    <mxGeometry relative="1" as="geometry"/>
                </mxCell>
                <mxCell id="74" value="&lt;div style=&quot;line-height: 18px&quot;&gt;ReactiveFlags.RAW&lt;/div&gt;&lt;div style=&quot;line-height: 18px&quot;&gt;且已经创建过了&lt;/div&gt;" style="rounded=0;whiteSpace=wrap;html=1;sketch=0;strokeColor=#457B9D;fillColor=#A8DADC;fontColor=#1D3557;labelBackgroundColor=none;" parent="1" vertex="1">
                    <mxGeometry x="-750" y="1340" width="200" height="30" as="geometry"/>
                </mxCell>
                <mxCell id="75" style="edgeStyle=orthogonalEdgeStyle;curved=0;rounded=1;sketch=0;orthogonalLoop=1;jettySize=auto;html=1;strokeColor=#457B9D;fillColor=#A8DADC;fontColor=#1D3557;exitX=1;exitY=0.5;exitDx=0;exitDy=0;labelBackgroundColor=#F1FAEE;" parent="1" source="133" target="78" edge="1">
                    <mxGeometry relative="1" as="geometry"/>
                </mxCell>
                <mxCell id="76" value="把数组的每一个索引key都收集一次" style="edgeLabel;html=1;align=center;verticalAlign=middle;resizable=0;points=[];fontColor=#1D3557;labelBackgroundColor=#F1FAEE;" parent="75" vertex="1" connectable="0">
                    <mxGeometry x="-0.2003" y="1" relative="1" as="geometry">
                        <mxPoint x="8.28" y="1" as="offset"/>
                    </mxGeometry>
                </mxCell>
                <mxCell id="134" style="edgeStyle=orthogonalEdgeStyle;curved=0;rounded=1;sketch=0;orthogonalLoop=1;jettySize=auto;html=1;entryX=0;entryY=0.5;entryDx=0;entryDy=0;strokeColor=#457B9D;fillColor=#A8DADC;fontColor=#1D3557;labelBackgroundColor=#F1FAEE;" parent="1" source="77" target="68" edge="1">
                    <mxGeometry relative="1" as="geometry">
                        <Array as="points">
                            <mxPoint x="-390" y="1465"/>
                            <mxPoint x="-390" y="1308"/>
                            <mxPoint x="-230" y="1308"/>
                        </Array>
                    </mxGeometry>
                </mxCell>
                <mxCell id="77" value="&lt;div style=&quot;line-height: 18px&quot;&gt;调用的数组的迭代器api，在执行的时候&lt;/div&gt;&lt;div style=&quot;line-height: 18px&quot;&gt;(push、pop、shift、unshift、splice）&lt;/div&gt;" style="rounded=0;whiteSpace=wrap;html=1;sketch=0;strokeColor=#457B9D;fillColor=#A8DADC;fontColor=#1D3557;labelBackgroundColor=none;" parent="1" vertex="1">
                    <mxGeometry x="-750" y="1440" width="260" height="50" as="geometry"/>
                </mxCell>
                <mxCell id="78" value="触发依赖收集" style="rounded=0;whiteSpace=wrap;html=1;sketch=0;strokeColor=#457B9D;fillColor=#A8DADC;fontColor=#1D3557;" parent="1" vertex="1">
                    <mxGeometry x="-230" y="1540" width="120" height="25" as="geometry"/>
                </mxCell>
                <mxCell id="103" style="edgeStyle=orthogonalEdgeStyle;rounded=0;orthogonalLoop=1;jettySize=auto;html=1;entryX=0;entryY=0.5;entryDx=0;entryDy=0;strokeColor=#457B9D;fontColor=#1D3557;labelBackgroundColor=#F1FAEE;" parent="1" source="79" target="68" edge="1">
                    <mxGeometry relative="1" as="geometry"/>
                </mxCell>
                <mxCell id="79" value="&lt;div style=&quot;line-height: 18px&quot;&gt;__proto__和__v-isRef__&lt;/div&gt;" style="rounded=0;whiteSpace=wrap;html=1;sketch=0;strokeColor=#457B9D;fillColor=#A8DADC;fontColor=#1D3557;labelBackgroundColor=none;" parent="1" vertex="1">
                    <mxGeometry x="-750" y="1390" width="200" height="30" as="geometry"/>
                </mxCell>
                <mxCell id="80" style="edgeStyle=orthogonalEdgeStyle;curved=0;rounded=1;sketch=0;orthogonalLoop=1;jettySize=auto;html=1;entryX=0;entryY=0.5;entryDx=0;entryDy=0;strokeColor=#457B9D;fillColor=#A8DADC;fontColor=#1D3557;labelBackgroundColor=#F1FAEE;" parent="1" source="82" target="78" edge="1">
                    <mxGeometry relative="1" as="geometry"/>
                </mxCell>
                <mxCell id="81" value="" style="edgeStyle=orthogonalEdgeStyle;curved=0;rounded=1;sketch=0;orthogonalLoop=1;jettySize=auto;html=1;strokeColor=#457B9D;fillColor=#A8DADC;fontColor=#1D3557;labelBackgroundColor=#F1FAEE;" parent="1" source="82" target="87" edge="1">
                    <mxGeometry relative="1" as="geometry"/>
                </mxCell>
                <mxCell id="82" value="&lt;div style=&quot;line-height: 18px&quot;&gt;在排除上述的情况后不是readOnly的会默认收集一次&lt;/div&gt;" style="rounded=0;whiteSpace=wrap;html=1;sketch=0;strokeColor=#457B9D;fillColor=#A8DADC;fontColor=#1D3557;labelBackgroundColor=none;" parent="1" vertex="1">
                    <mxGeometry x="-750" y="1560" width="300" height="50" as="geometry"/>
                </mxCell>
                <mxCell id="83" value="" style="edgeStyle=orthogonalEdgeStyle;curved=0;rounded=1;sketch=0;orthogonalLoop=1;jettySize=auto;html=1;strokeColor=#457B9D;fillColor=#A8DADC;fontColor=#1D3557;labelBackgroundColor=#F1FAEE;" parent="1" source="87" target="88" edge="1">
                    <mxGeometry relative="1" as="geometry"/>
                </mxCell>
                <mxCell id="84" value="&lt;span style=&quot;background-color: rgb(255 , 255 , 255)&quot;&gt;是&lt;/span&gt;" style="edgeLabel;html=1;align=center;verticalAlign=middle;resizable=0;points=[];fontColor=#1D3557;labelBackgroundColor=#F1FAEE;" parent="83" vertex="1" connectable="0">
                    <mxGeometry x="-0.1072" y="1" relative="1" as="geometry">
                        <mxPoint as="offset"/>
                    </mxGeometry>
                </mxCell>
                <mxCell id="85" value="" style="edgeStyle=orthogonalEdgeStyle;curved=0;rounded=1;sketch=0;orthogonalLoop=1;jettySize=auto;html=1;strokeColor=#457B9D;fillColor=#A8DADC;fontColor=#1D3557;labelBackgroundColor=#F1FAEE;" parent="1" source="87" target="91" edge="1">
                    <mxGeometry relative="1" as="geometry"/>
                </mxCell>
                <mxCell id="86" value="&lt;span style=&quot;&quot;&gt;不是&lt;/span&gt;" style="edgeLabel;html=1;align=center;verticalAlign=middle;resizable=0;points=[];fontColor=#1D3557;labelBackgroundColor=none;" parent="85" vertex="1" connectable="0">
                    <mxGeometry x="0.106" y="1" relative="1" as="geometry">
                        <mxPoint as="offset"/>
                    </mxGeometry>
                </mxCell>
                <mxCell id="87" value="取出的是一个ref" style="rhombus;whiteSpace=wrap;html=1;rounded=0;strokeColor=#457B9D;fillColor=#A8DADC;labelBackgroundColor=none;sketch=0;fontColor=#1D3557;" parent="1" vertex="1">
                    <mxGeometry x="-760" y="1620" width="130" height="50" as="geometry"/>
                </mxCell>
                <mxCell id="88" value="自动解开&lt;br&gt;不适用于一个ref数组" style="whiteSpace=wrap;html=1;rounded=0;fontColor=#1D3557;strokeColor=#457B9D;fillColor=#A8DADC;sketch=0;" parent="1" vertex="1">
                    <mxGeometry x="-575" y="1625" width="130" height="40" as="geometry"/>
                </mxCell>
                <mxCell id="89" value="" style="edgeStyle=orthogonalEdgeStyle;curved=0;rounded=1;sketch=0;orthogonalLoop=1;jettySize=auto;html=1;strokeColor=#457B9D;fillColor=#A8DADC;fontColor=#1D3557;labelBackgroundColor=#F1FAEE;" parent="1" source="91" target="92" edge="1">
                    <mxGeometry relative="1" as="geometry"/>
                </mxCell>
                <mxCell id="90" value="&lt;span style=&quot;background-color: rgb(255 , 255 , 255)&quot;&gt;是&lt;/span&gt;" style="edgeLabel;html=1;align=center;verticalAlign=middle;resizable=0;points=[];fontColor=#1D3557;labelBackgroundColor=#F1FAEE;" parent="89" vertex="1" connectable="0">
                    <mxGeometry x="-0.0571" y="1" relative="1" as="geometry">
                        <mxPoint as="offset"/>
                    </mxGeometry>
                </mxCell>
                <mxCell id="91" value="对象" style="rhombus;whiteSpace=wrap;html=1;rounded=0;strokeColor=#457B9D;fillColor=#A8DADC;labelBackgroundColor=none;sketch=0;fontColor=#1D3557;" parent="1" vertex="1">
                    <mxGeometry x="-760" y="1710" width="130" height="50" as="geometry"/>
                </mxCell>
                <mxCell id="92" value="包成reactive或者readonly" style="whiteSpace=wrap;html=1;rounded=0;fontColor=#1D3557;strokeColor=#457B9D;fillColor=#A8DADC;sketch=0;" parent="1" vertex="1">
                    <mxGeometry x="-575" y="1717.5" width="160" height="35" as="geometry"/>
                </mxCell>
                <mxCell id="101" value="" style="edgeStyle=orthogonalEdgeStyle;rounded=0;orthogonalLoop=1;jettySize=auto;html=1;strokeColor=#457B9D;fontColor=#1D3557;labelBackgroundColor=#F1FAEE;" parent="1" source="94" target="96" edge="1">
                    <mxGeometry relative="1" as="geometry"/>
                </mxCell>
                <mxCell id="129" value="浅" style="edgeLabel;html=1;align=center;verticalAlign=middle;resizable=0;points=[];fontColor=#1D3557;labelBackgroundColor=#F1FAEE;" parent="101" vertex="1" connectable="0">
                    <mxGeometry x="-0.1414" relative="1" as="geometry">
                        <mxPoint as="offset"/>
                    </mxGeometry>
                </mxCell>
                <mxCell id="108" style="edgeStyle=orthogonalEdgeStyle;rounded=0;orthogonalLoop=1;jettySize=auto;html=1;entryX=0;entryY=0.5;entryDx=0;entryDy=0;strokeColor=#457B9D;fontColor=#1D3557;exitX=0.5;exitY=1;exitDx=0;exitDy=0;labelBackgroundColor=#F1FAEE;" parent="1" source="94" target="98" edge="1">
                    <mxGeometry relative="1" as="geometry"/>
                </mxCell>
                <mxCell id="94" value="&lt;div style=&quot;line-height: 18px&quot;&gt;shallow&lt;/div&gt;" style="rhombus;whiteSpace=wrap;html=1;rounded=0;fontColor=#1D3557;strokeColor=#457B9D;fillColor=#A8DADC;sketch=0;" parent="1" vertex="1">
                    <mxGeometry x="-1000" y="1950" width="80" height="80" as="geometry"/>
                </mxCell>
                <mxCell id="113" style="edgeStyle=orthogonalEdgeStyle;rounded=0;orthogonalLoop=1;jettySize=auto;html=1;entryX=0;entryY=0.5;entryDx=0;entryDy=0;strokeColor=#457B9D;fontColor=#1D3557;labelBackgroundColor=#F1FAEE;" parent="1" source="96" target="112" edge="1">
                    <mxGeometry relative="1" as="geometry"/>
                </mxCell>
                <mxCell id="96" value="如果是ref的话，赋值给ref的value" style="whiteSpace=wrap;html=1;rounded=0;fontColor=#1D3557;strokeColor=#457B9D;fillColor=#A8DADC;sketch=0;" parent="1" vertex="1">
                    <mxGeometry x="-860" y="1960" width="120" height="60" as="geometry"/>
                </mxCell>
                <mxCell id="109" value="" style="edgeStyle=orthogonalEdgeStyle;rounded=0;orthogonalLoop=1;jettySize=auto;html=1;strokeColor=#457B9D;entryX=0;entryY=0.5;entryDx=0;entryDy=0;fontColor=#1D3557;labelBackgroundColor=#F1FAEE;" parent="1" source="98" target="116" edge="1">
                    <mxGeometry relative="1" as="geometry">
                        <mxPoint x="-680" y="2075" as="targetPoint"/>
                    </mxGeometry>
                </mxCell>
                <mxCell id="98" value="set逻辑" style="whiteSpace=wrap;html=1;rounded=0;fontColor=#1D3557;strokeColor=#457B9D;fillColor=#A8DADC;sketch=0;" parent="1" vertex="1">
                    <mxGeometry x="-870" y="2055" width="120" height="40" as="geometry"/>
                </mxCell>
                <mxCell id="105" value="&lt;div style=&quot;line-height: 18px&quot;&gt;get逻辑&lt;/div&gt;" style="whiteSpace=wrap;html=1;aspect=fixed;fillColor=#A8DADC;strokeColor=#457B9D;fontColor=#1D3557;" parent="1" vertex="1">
                    <mxGeometry x="-370" y="1420" width="80" height="80" as="geometry"/>
                </mxCell>
                <mxCell id="111" value="触发依赖" style="rounded=0;whiteSpace=wrap;html=1;sketch=0;strokeColor=#457B9D;fillColor=#A8DADC;fontColor=#1D3557;" parent="1" vertex="1">
                    <mxGeometry x="-280" y="2062.5" width="120" height="25" as="geometry"/>
                </mxCell>
                <mxCell id="112" value="不触发依赖" style="rounded=0;whiteSpace=wrap;html=1;sketch=0;strokeColor=#457B9D;fillColor=#A8DADC;fontColor=#1D3557;" parent="1" vertex="1">
                    <mxGeometry x="-280" y="1976.25" width="120" height="27.5" as="geometry"/>
                </mxCell>
                <mxCell id="117" style="edgeStyle=orthogonalEdgeStyle;rounded=0;orthogonalLoop=1;jettySize=auto;html=1;entryX=0;entryY=0.5;entryDx=0;entryDy=0;strokeColor=#457B9D;exitX=0.5;exitY=0;exitDx=0;exitDy=0;fontColor=#1D3557;labelBackgroundColor=#F1FAEE;" parent="1" source="116" target="112" edge="1">
                    <mxGeometry relative="1" as="geometry"/>
                </mxCell>
                <mxCell id="118" value="没" style="edgeLabel;html=1;align=center;verticalAlign=middle;resizable=0;points=[];fontColor=#1D3557;labelBackgroundColor=#F1FAEE;" parent="117" vertex="1" connectable="0">
                    <mxGeometry x="-0.915" y="2" relative="1" as="geometry">
                        <mxPoint as="offset"/>
                    </mxGeometry>
                </mxCell>
                <mxCell id="124" style="edgeStyle=orthogonalEdgeStyle;curved=0;rounded=1;sketch=0;orthogonalLoop=1;jettySize=auto;html=1;entryX=0;entryY=0.5;entryDx=0;entryDy=0;strokeColor=#457B9D;fillColor=#A8DADC;fontColor=#1D3557;labelBackgroundColor=#F1FAEE;" parent="1" source="116" target="122" edge="1">
                    <mxGeometry relative="1" as="geometry"/>
                </mxCell>
                <mxCell id="125" style="edgeStyle=orthogonalEdgeStyle;curved=0;rounded=1;sketch=0;orthogonalLoop=1;jettySize=auto;html=1;entryX=0;entryY=0.5;entryDx=0;entryDy=0;strokeColor=#457B9D;fillColor=#A8DADC;fontColor=#1D3557;labelBackgroundColor=#F1FAEE;" parent="1" source="116" target="123" edge="1">
                    <mxGeometry relative="1" as="geometry"/>
                </mxCell>
                <mxCell id="128" value="&lt;span style=&quot;background-color: rgb(255 , 255 , 255)&quot;&gt;有&lt;/span&gt;" style="edgeLabel;html=1;align=center;verticalAlign=middle;resizable=0;points=[];fontColor=#1D3557;labelBackgroundColor=#F1FAEE;" parent="125" vertex="1" connectable="0">
                    <mxGeometry x="-0.7368" relative="1" as="geometry">
                        <mxPoint as="offset"/>
                    </mxGeometry>
                </mxCell>
                <mxCell id="116" value="是否修改" style="rhombus;whiteSpace=wrap;html=1;rounded=0;strokeColor=#457B9D;fillColor=#A8DADC;labelBackgroundColor=none;sketch=0;fontColor=#1D3557;" parent="1" vertex="1">
                    <mxGeometry x="-705" y="2050" width="130" height="50" as="geometry"/>
                </mxCell>
                <mxCell id="126" style="edgeStyle=orthogonalEdgeStyle;curved=0;rounded=1;sketch=0;orthogonalLoop=1;jettySize=auto;html=1;entryX=0;entryY=0.5;entryDx=0;entryDy=0;strokeColor=#457B9D;fillColor=#A8DADC;fontColor=#1D3557;labelBackgroundColor=#F1FAEE;" parent="1" source="122" target="111" edge="1">
                    <mxGeometry relative="1" as="geometry"/>
                </mxCell>
                <mxCell id="122" value="ADD类型" style="rounded=0;whiteSpace=wrap;html=1;sketch=0;strokeColor=#457B9D;fillColor=#A8DADC;fontColor=#1D3557;" parent="1" vertex="1">
                    <mxGeometry x="-500" y="2042.5" width="120" height="20" as="geometry"/>
                </mxCell>
                <mxCell id="127" style="edgeStyle=orthogonalEdgeStyle;curved=0;rounded=1;sketch=0;orthogonalLoop=1;jettySize=auto;html=1;entryX=0;entryY=0.5;entryDx=0;entryDy=0;strokeColor=#457B9D;fillColor=#A8DADC;fontColor=#1D3557;labelBackgroundColor=#F1FAEE;" parent="1" source="123" target="111" edge="1">
                    <mxGeometry relative="1" as="geometry"/>
                </mxCell>
                <mxCell id="123" value="SET类型" style="rounded=0;whiteSpace=wrap;html=1;sketch=0;strokeColor=#457B9D;fillColor=#A8DADC;fontColor=#1D3557;" parent="1" vertex="1">
                    <mxGeometry x="-500" y="2087.5" width="120" height="20" as="geometry"/>
                </mxCell>
                <mxCell id="137" style="edgeStyle=orthogonalEdgeStyle;curved=0;rounded=1;sketch=0;orthogonalLoop=1;jettySize=auto;html=1;entryX=0;entryY=0.5;entryDx=0;entryDy=0;strokeColor=#457B9D;fillColor=#A8DADC;fontColor=#1D3557;labelBackgroundColor=#F1FAEE;" parent="1" source="130" target="136" edge="1">
                    <mxGeometry relative="1" as="geometry"/>
                </mxCell>
                <mxCell id="130" value="&lt;div style=&quot;line-height: 18px&quot;&gt;&lt;div style=&quot;line-height: 18px&quot;&gt;deleteProperty&lt;/div&gt;&lt;/div&gt;" style="rounded=0;whiteSpace=wrap;html=1;sketch=0;strokeColor=#457B9D;fillColor=#A8DADC;fontColor=#1D3557;" parent="1" vertex="1">
                    <mxGeometry x="-1160" y="2115" width="120" height="30" as="geometry"/>
                </mxCell>
                <mxCell id="144" style="edgeStyle=orthogonalEdgeStyle;curved=0;rounded=1;sketch=0;orthogonalLoop=1;jettySize=auto;html=1;entryX=1;entryY=0.5;entryDx=0;entryDy=0;strokeColor=#457B9D;fillColor=#A8DADC;fontColor=#1D3557;labelBackgroundColor=#F1FAEE;" parent="1" source="131" target="140" edge="1">
                    <mxGeometry relative="1" as="geometry"/>
                </mxCell>
                <mxCell id="131" value="&lt;div style=&quot;line-height: 18px&quot;&gt;&lt;div style=&quot;line-height: 18px&quot;&gt;ownKeys&lt;/div&gt;&lt;/div&gt;" style="rounded=0;whiteSpace=wrap;html=1;sketch=0;strokeColor=#457B9D;fillColor=#A8DADC;fontColor=#1D3557;" parent="1" vertex="1">
                    <mxGeometry x="360" y="1445" width="120" height="30" as="geometry"/>
                </mxCell>
                <mxCell id="143" style="edgeStyle=orthogonalEdgeStyle;curved=0;rounded=1;sketch=0;orthogonalLoop=1;jettySize=auto;html=1;entryX=1;entryY=0.5;entryDx=0;entryDy=0;strokeColor=#457B9D;fillColor=#A8DADC;fontColor=#1D3557;labelBackgroundColor=#F1FAEE;" parent="1" source="132" target="139" edge="1">
                    <mxGeometry relative="1" as="geometry"/>
                </mxCell>
                <mxCell id="132" value="&lt;div style=&quot;line-height: 18px&quot;&gt;&lt;div style=&quot;line-height: 18px&quot;&gt;has&lt;/div&gt;&lt;/div&gt;" style="rounded=0;whiteSpace=wrap;html=1;sketch=0;strokeColor=#457B9D;fillColor=#A8DADC;fontColor=#1D3557;" parent="1" vertex="1">
                    <mxGeometry x="360" y="1365" width="120" height="30" as="geometry"/>
                </mxCell>
                <mxCell id="133" value="&lt;div style=&quot;line-height: 18px&quot;&gt;调用的数组的会修改length的api&lt;/div&gt;&lt;div style=&quot;line-height: 18px&quot;&gt;(include、indexOf、lastIndexOf）&lt;/div&gt;" style="rounded=0;whiteSpace=wrap;html=1;sketch=0;strokeColor=#457B9D;fillColor=#A8DADC;fontColor=#1D3557;labelBackgroundColor=none;" parent="1" vertex="1">
                    <mxGeometry x="-750" y="1500" width="240" height="50" as="geometry"/>
                </mxCell>
                <mxCell id="138" style="edgeStyle=orthogonalEdgeStyle;curved=0;rounded=1;sketch=0;orthogonalLoop=1;jettySize=auto;html=1;entryX=0;entryY=0.5;entryDx=0;entryDy=0;strokeColor=#457B9D;fillColor=#A8DADC;fontColor=#1D3557;labelBackgroundColor=#F1FAEE;" parent="1" source="136" target="111" edge="1">
                    <mxGeometry relative="1" as="geometry"/>
                </mxCell>
                <mxCell id="136" value="DELETE类型" style="rounded=0;whiteSpace=wrap;html=1;sketch=0;strokeColor=#457B9D;fillColor=#A8DADC;fontColor=#1D3557;" parent="1" vertex="1">
                    <mxGeometry x="-500" y="2120" width="120" height="20" as="geometry"/>
                </mxCell>
                <mxCell id="141" style="edgeStyle=orthogonalEdgeStyle;curved=0;rounded=1;sketch=0;orthogonalLoop=1;jettySize=auto;html=1;entryX=1;entryY=0.5;entryDx=0;entryDy=0;strokeColor=#457B9D;fillColor=#A8DADC;fontColor=#1D3557;labelBackgroundColor=#F1FAEE;" parent="1" source="139" target="78" edge="1">
                    <mxGeometry relative="1" as="geometry"/>
                </mxCell>
                <mxCell id="139" value="HAS类型" style="rounded=0;whiteSpace=wrap;html=1;sketch=0;strokeColor=#457B9D;fillColor=#A8DADC;fontColor=#1D3557;" parent="1" vertex="1">
                    <mxGeometry x="-40" y="1370" width="120" height="20" as="geometry"/>
                </mxCell>
                <mxCell id="142" style="edgeStyle=orthogonalEdgeStyle;curved=0;rounded=1;sketch=0;orthogonalLoop=1;jettySize=auto;html=1;entryX=1;entryY=0.5;entryDx=0;entryDy=0;strokeColor=#457B9D;fillColor=#A8DADC;fontColor=#1D3557;exitX=0;exitY=0.5;exitDx=0;exitDy=0;labelBackgroundColor=#F1FAEE;" parent="1" source="140" target="78" edge="1">
                    <mxGeometry relative="1" as="geometry">
                        <mxPoint x="150" y="1610" as="sourcePoint"/>
                    </mxGeometry>
                </mxCell>
                <mxCell id="140" value="ITERATE类型" style="rounded=0;whiteSpace=wrap;html=1;sketch=0;strokeColor=#457B9D;fillColor=#A8DADC;fontColor=#1D3557;" parent="1" vertex="1">
                    <mxGeometry x="-40" y="1512.5" width="120" height="20" as="geometry"/>
                </mxCell>
                <mxCell id="161" style="edgeStyle=orthogonalEdgeStyle;curved=0;rounded=1;sketch=0;orthogonalLoop=1;jettySize=auto;html=1;entryX=1;entryY=0.5;entryDx=0;entryDy=0;strokeColor=#457B9D;fillColor=#A8DADC;fontColor=#1D3557;" parent="1" source="149" target="160" edge="1">
                    <mxGeometry relative="1" as="geometry">
                        <mxPoint x="30" y="2130" as="targetPoint"/>
                    </mxGeometry>
                </mxCell>
                <mxCell id="149" value="&lt;div style=&quot;line-height: 18px&quot;&gt;&lt;div style=&quot;line-height: 18px&quot;&gt;clear&lt;/div&gt;&lt;/div&gt;" style="rounded=0;whiteSpace=wrap;html=1;sketch=0;strokeColor=#457B9D;fillColor=#A8DADC;fontColor=#1D3557;" parent="1" vertex="1">
                    <mxGeometry x="80" y="2082.5" width="120" height="30" as="geometry"/>
                </mxCell>
                <mxCell id="162" style="edgeStyle=orthogonalEdgeStyle;curved=0;rounded=1;sketch=0;orthogonalLoop=1;jettySize=auto;html=1;entryX=1;entryY=0.5;entryDx=0;entryDy=0;strokeColor=#457B9D;fillColor=#A8DADC;fontColor=#1D3557;" parent="1" source="150" target="160" edge="1">
                    <mxGeometry relative="1" as="geometry">
                        <mxPoint x="30" y="2130" as="targetPoint"/>
                    </mxGeometry>
                </mxCell>
                <mxCell id="150" value="&lt;div style=&quot;line-height: 18px&quot;&gt;&lt;div style=&quot;line-height: 18px&quot;&gt;&lt;div style=&quot;line-height: 18px&quot;&gt;deleteEntry&lt;/div&gt;&lt;/div&gt;&lt;/div&gt;" style="rounded=0;whiteSpace=wrap;html=1;sketch=0;strokeColor=#457B9D;fillColor=#A8DADC;fontColor=#1D3557;" parent="1" vertex="1">
                    <mxGeometry x="80" y="2135" width="130" height="30" as="geometry"/>
                </mxCell>
                <mxCell id="166" value="" style="edgeStyle=orthogonalEdgeStyle;curved=0;rounded=1;sketch=0;orthogonalLoop=1;jettySize=auto;html=1;strokeColor=#457B9D;fillColor=#A8DADC;fontColor=#1D3557;" parent="1" source="151" target="158" edge="1">
                    <mxGeometry relative="1" as="geometry"/>
                </mxCell>
                <mxCell id="151" value="&lt;div style=&quot;line-height: 18px&quot;&gt;&lt;div style=&quot;line-height: 18px&quot;&gt;&lt;div style=&quot;line-height: 18px&quot;&gt;&lt;div style=&quot;line-height: 18px&quot;&gt;add&lt;/div&gt;&lt;/div&gt;&lt;/div&gt;&lt;/div&gt;" style="rounded=0;whiteSpace=wrap;html=1;sketch=0;strokeColor=#457B9D;fillColor=#A8DADC;fontColor=#1D3557;" parent="1" vertex="1">
                    <mxGeometry x="90" y="2030" width="120" height="30" as="geometry"/>
                </mxCell>
                <mxCell id="155" style="edgeStyle=orthogonalEdgeStyle;curved=0;rounded=1;sketch=0;orthogonalLoop=1;jettySize=auto;html=1;entryX=1;entryY=0.5;entryDx=0;entryDy=0;strokeColor=#457B9D;fillColor=#A8DADC;fontColor=#1D3557;" parent="1" source="152" target="140" edge="1">
                    <mxGeometry relative="1" as="geometry"/>
                </mxCell>
                <mxCell id="152" value="&lt;div style=&quot;line-height: 18px&quot;&gt;&lt;div style=&quot;line-height: 18px&quot;&gt;&lt;div style=&quot;line-height: 18px&quot;&gt;&lt;div style=&quot;line-height: 18px&quot;&gt;size&lt;/div&gt;&lt;/div&gt;&lt;/div&gt;&lt;/div&gt;" style="rounded=0;whiteSpace=wrap;html=1;sketch=0;strokeColor=#457B9D;fillColor=#A8DADC;fontColor=#1D3557;" parent="1" vertex="1">
                    <mxGeometry x="360" y="1560" width="120" height="30" as="geometry"/>
                </mxCell>
                <mxCell id="154" style="edgeStyle=orthogonalEdgeStyle;rounded=0;orthogonalLoop=1;jettySize=auto;html=1;entryX=1;entryY=0.5;entryDx=0;entryDy=0;labelBackgroundColor=#F1FAEE;strokeColor=#457B9D;fontColor=#1D3557;" parent="1" source="153" target="140" edge="1">
                    <mxGeometry relative="1" as="geometry"/>
                </mxCell>
                <mxCell id="153" value="&lt;div style=&quot;line-height: 18px&quot;&gt;&lt;div style=&quot;line-height: 18px&quot;&gt;&lt;div style=&quot;line-height: 18px&quot;&gt;&lt;div style=&quot;line-height: 18px&quot;&gt;&lt;div style=&quot;line-height: 18px&quot;&gt;forEach&lt;/div&gt;&lt;/div&gt;&lt;/div&gt;&lt;/div&gt;&lt;/div&gt;" style="rounded=0;whiteSpace=wrap;html=1;sketch=0;strokeColor=#457B9D;fillColor=#A8DADC;fontColor=#1D3557;" parent="1" vertex="1">
                    <mxGeometry x="360" y="1507.5" width="120" height="30" as="geometry"/>
                </mxCell>
                <mxCell id="164" value="" style="edgeStyle=orthogonalEdgeStyle;curved=0;rounded=1;sketch=0;orthogonalLoop=1;jettySize=auto;html=1;strokeColor=#457B9D;fillColor=#A8DADC;fontColor=#1D3557;entryX=1;entryY=0.5;entryDx=0;entryDy=0;" parent="1" source="158" target="111" edge="1">
                    <mxGeometry relative="1" as="geometry"/>
                </mxCell>
                <mxCell id="158" value="ADD类型" style="rounded=0;whiteSpace=wrap;html=1;sketch=0;strokeColor=#457B9D;fillColor=#A8DADC;fontColor=#1D3557;" parent="1" vertex="1">
                    <mxGeometry x="-90" y="2035" width="120" height="20" as="geometry"/>
                </mxCell>
                <mxCell id="165" style="edgeStyle=orthogonalEdgeStyle;curved=0;rounded=1;sketch=0;orthogonalLoop=1;jettySize=auto;html=1;entryX=1;entryY=0.5;entryDx=0;entryDy=0;strokeColor=#457B9D;fillColor=#A8DADC;fontColor=#1D3557;" parent="1" source="160" target="111" edge="1">
                    <mxGeometry relative="1" as="geometry"/>
                </mxCell>
                <mxCell id="160" value="DELETE类型" style="rounded=0;whiteSpace=wrap;html=1;sketch=0;strokeColor=#457B9D;fillColor=#A8DADC;fontColor=#1D3557;" parent="1" vertex="1">
                    <mxGeometry x="-90" y="2107.5" width="120" height="20" as="geometry"/>
                </mxCell>
                <mxCell id="168" value="" style="edgeStyle=orthogonalEdgeStyle;curved=0;rounded=1;sketch=0;orthogonalLoop=1;jettySize=auto;html=1;strokeColor=#457B9D;fillColor=#A8DADC;fontColor=#1D3557;" parent="1" source="167" target="112" edge="1">
                    <mxGeometry relative="1" as="geometry"/>
                </mxCell>
                <mxCell id="167" value="readonlyHandlers" style="rounded=0;whiteSpace=wrap;html=1;sketch=0;strokeColor=#457B9D;fillColor=#A8DADC;fontColor=#1D3557;" parent="1" vertex="1">
                    <mxGeometry x="80" y="1975.25" width="120" height="30" as="geometry"/>
                </mxCell>
            </root>
        </mxGraphModel>
    </diagram>
</mxfile>